<svg width="47" height="47" viewBox="0 0 47 47" fill="none" xmlns="http://www.w3.org/2000/svg">
<path d="M28.4 46.35V43.35C32.5667 43.35 36.1083 41.8947 39.025 38.984C41.9417 36.0732 43.4 32.5286 43.4 28.35H46.4C46.4 30.85 45.925 33.1917 44.975 35.375C44.025 37.5583 42.7417 39.4583 41.125 41.075C39.5083 42.6917 37.6083 43.975 35.425 44.925C33.2417 45.875 30.9 46.35 28.4 46.35ZM28.4 40.35V37.35C30.7 37.35 32.775 36.425 34.625 34.575C36.475 32.725 37.4 30.65 37.4 28.35H40.4C40.4 31.5167 39.1917 34.3083 36.775 36.725C34.3583 39.1417 31.5667 40.35 28.4 40.35ZM11.5 45.5C11.1111 45.5 10.7222 45.425 10.3334 45.275C9.94445 45.125 9.61667 44.9167 9.35 44.65L0.85 36.15C0.583333 35.8833 0.375 35.5574 0.225 35.1722C0.075 34.7869 0 34.4016 0 34.0164C0 33.6055 0.0739167 33.2188 0.22175 32.8563C0.369583 32.4938 0.579 32.175 0.85 31.9L8.4 24.35C8.96667 23.7833 9.675 23.5 10.525 23.5C11.375 23.5 12.0833 23.7833 12.65 24.35L15.85 27.55L17.7 25.7L14.5 22.5C13.9333 21.9228 13.65 21.2202 13.65 20.3922C13.65 19.5641 13.9333 18.8667 14.5 18.3L18.25 14.55C18.8293 13.9833 19.5408 13.7 20.3845 13.7C21.2282 13.7 21.9333 13.9833 22.5 14.55L25.7 17.75L27.55 15.9L24.35 12.7C23.7833 12.1207 23.5 11.4092 23.5 10.5655C23.5 9.72185 23.7833 9.01667 24.35 8.45L31.9 0.9C32.1952 0.6 32.5274 0.375 32.8965 0.225C33.2655 0.075 33.65 0 34.05 0C34.45 0 34.8333 0.0666667 35.2 0.2C35.5667 0.333333 35.9 0.55 36.2 0.85L44.7 9.35C44.9957 9.63403 45.2113 9.96327 45.3468 10.3377C45.4823 10.7121 45.55 11.1059 45.55 11.519C45.55 11.9063 45.4667 12.2917 45.3 12.675C45.1333 13.0583 44.9167 13.3833 44.65 13.65L37.1 21.2C36.3333 21.9667 35.625 22.35 34.975 22.35C34.325 22.35 33.6167 21.9667 32.85 21.2L29.65 18L27.8 19.85L31 23.05C31.5667 23.6293 31.8417 24.3408 31.825 25.1845C31.8083 26.0282 31.5167 26.7333 30.95 27.3L27.25 31C26.6707 31.5667 25.9593 31.85 25.1156 31.85C24.2719 31.85 23.5667 31.5667 23 31L19.8 27.8L17.95 29.65L21.15 32.85C21.7167 33.4167 22 34.125 22 34.975C22 35.825 21.7167 36.5333 21.15 37.1L13.6 44.65C13.325 44.921 13.0063 45.1304 12.6438 45.2783C12.2813 45.4261 11.9 45.5 11.5 45.5ZM11.5 42.55L14.2 39.85L5.7 31.35L3 34.05L11.5 42.55ZM16.35 37.7L19.05 35L10.55 26.5L7.85 29.2L16.35 37.7ZM25.15 28.9L28.85 25.2L20.35 16.7L16.65 20.4L25.15 28.9ZM35 19.05L37.7 16.35L29.2 7.85L26.5 10.55L35 19.05ZM39.85 14.2L42.55 11.5L34.05 3L31.35 5.7L39.85 14.2Z" fill="#FDFEFF"/>
</svg>
