<svg width="36" height="36" viewBox="0 0 36 36" fill="none" xmlns="http://www.w3.org/2000/svg">
<path d="M18 36C12.9667 36 8.70833 35.225 5.225 33.675C1.74167 32.125 0 30.2333 0 28V8C0 5.8 1.75833 3.91667 5.275 2.35C8.79167 0.783333 13.0333 0 18 0C22.9667 0 27.2083 0.783333 30.725 2.35C34.2417 3.91667 36 5.8 36 8V28C36 30.2333 34.2583 32.125 30.775 33.675C27.2917 35.225 23.0333 36 18 36ZM18 11.6C20.8667 11.6 23.8083 11.1583 26.825 10.275C29.8417 9.39167 31.7833 8.4 32.65 7.3C31.75 6.23333 29.7917 5.25 26.775 4.35C23.7583 3.45 20.8333 3 18 3C15.0667 3 12.1167 3.43333 9.15 4.3C6.18333 5.16667 4.23333 6.16667 3.3 7.3C4.23333 8.46667 6.16667 9.475 9.1 10.325C12.0333 11.175 15 11.6 18 11.6ZM17.95 22.3C19.35 22.3 20.75 22.225 22.15 22.075C23.55 21.925 24.8917 21.7 26.175 21.4C27.4583 21.1 28.6833 20.7333 29.85 20.3C31.0167 19.8667 32.0667 19.3833 33 18.85V11.1C32.0333 11.6333 30.9667 12.1167 29.8 12.55C28.6333 12.9833 27.4 13.35 26.1 13.65C24.8 13.95 23.4667 14.1833 22.1 14.35C20.7333 14.5167 19.35 14.6 17.95 14.6C16.55 14.6 15.15 14.5167 13.75 14.35C12.35 14.1833 11.0083 13.95 9.725 13.65C8.44167 13.35 7.225 12.9833 6.075 12.55C4.925 12.1167 3.9 11.6333 3 11.1V18.85C3.9 19.3833 4.91667 19.8667 6.05 20.3C7.18333 20.7333 8.39167 21.1 9.675 21.4C10.9583 21.7 12.3 21.925 13.7 22.075C15.1 22.225 16.5167 22.3 17.95 22.3ZM18 33C19.6 33 21.25 32.8583 22.95 32.575C24.65 32.2917 26.2083 31.9167 27.625 31.45C29.0417 30.9833 30.2417 30.4667 31.225 29.9C32.2083 29.3333 32.8 28.75 33 28.15V21.9C32.0667 22.4333 31.0167 22.9083 29.85 23.325C28.6833 23.7417 27.4583 24.1 26.175 24.4C24.8917 24.7 23.5583 24.925 22.175 25.075C20.7917 25.225 19.3833 25.3 17.95 25.3C16.5167 25.3 15.1 25.225 13.7 25.075C12.3 24.925 10.9583 24.7 9.675 24.4C8.39167 24.1 7.18333 23.7417 6.05 23.325C4.91667 22.9083 3.9 22.4333 3 21.9V28.2C3.16667 28.7667 3.73333 29.3417 4.7 29.925C5.66667 30.5083 6.86667 31.025 8.3 31.475C9.73333 31.925 11.3 32.2917 13 32.575C14.7 32.8583 16.3667 33 18 33Z" fill="#FDFEFF"/>
</svg>
