<svg width="44" height="32" viewBox="0 0 44 32" fill="none" xmlns="http://www.w3.org/2000/svg">
<path d="M10.55 31.95C7.61667 31.95 5.125 30.925 3.075 28.875C1.025 26.825 0 24.3333 0 21.4C0 18.8 0.833333 16.5167 2.5 14.55C4.16667 12.5833 6.28333 11.4 8.85 11C9.51667 7.76667 11.0833 5.125 13.55 3.075C16.0167 1.025 18.8667 0 22.1 0C25.8333 0 28.9833 1.35833 31.55 4.075C34.1167 6.79167 35.4 10.05 35.4 13.85V15.05C37.8 14.9833 39.8333 15.7583 41.5 17.375C43.1667 18.9917 44 21.0333 44 23.5C44 25.8 43.1667 27.7833 41.5 29.45C39.8333 31.1167 37.85 31.95 35.55 31.95H10.55ZM10.55 28.95H35.55C37.05 28.95 38.3333 28.4167 39.4 27.35C40.4667 26.2833 41 25 41 23.5C41 22 40.4667 20.7167 39.4 19.65C38.3333 18.5833 37.05 18.05 35.55 18.05H32.4V13.85C32.4 10.8167 31.3833 8.25 29.35 6.15C27.3167 4.05 24.8333 3 21.9 3C18.9667 3 16.475 4.05 14.425 6.15C12.375 8.25 11.35 10.8167 11.35 13.85H10.4C8.33333 13.85 6.58333 14.575 5.15 16.025C3.71667 17.475 3 19.2667 3 21.4C3 23.5 3.73333 25.2833 5.2 26.75C6.66667 28.2167 8.45 28.95 10.55 28.95Z" fill="#FDFEFF"/>
</svg>
