<svg width="48" height="46" viewBox="0 0 48 46" fill="none" xmlns="http://www.w3.org/2000/svg">
<path d="M11.7 46C10.1167 46 8.77083 45.4458 7.6625 44.3375C6.55417 43.2292 6 41.8833 6 40.3C6 38.7167 6.55417 37.3708 7.6625 36.2625C8.77083 35.1542 10.1167 34.6 11.7 34.6C12.1667 34.6 12.575 34.6417 12.925 34.725C13.275 34.8083 13.6333 34.9333 14 35.1L18.25 29.8C17.6167 29.0333 17.1333 28.1583 16.8 27.175C16.4667 26.1917 16.3833 25.1667 16.55 24.1L10.5 22.05C10 22.8833 9.34167 23.5333 8.525 24C7.70833 24.4667 6.76667 24.7 5.7 24.7C4.11667 24.7 2.77083 24.1458 1.6625 23.0375C0.554167 21.9292 0 20.5833 0 19C0 17.4167 0.554167 16.0708 1.6625 14.9625C2.77083 13.8542 4.11667 13.3 5.7 13.3C7.28333 13.3 8.62917 13.8542 9.7375 14.9625C10.8458 16.0708 11.4 17.4167 11.4 19V19.2L17.5 21.3C18.1 20.2333 18.825 19.4167 19.675 18.85C20.525 18.2833 21.4667 17.8833 22.5 17.65V11.2C21.2 10.8333 20.175 10.1167 19.425 9.05C18.675 7.98333 18.3 6.86667 18.3 5.7C18.3 4.11667 18.8542 2.77083 19.9625 1.6625C21.0708 0.554167 22.4167 0 24 0C25.5833 0 26.9292 0.554167 28.0375 1.6625C29.1458 2.77083 29.7 4.11667 29.7 5.7C29.7 6.86667 29.3167 7.98333 28.55 9.05C27.7833 10.1167 26.7667 10.8333 25.5 11.2V17.65C26.5333 17.8833 27.4833 18.2833 28.35 18.85C29.2167 19.4167 29.95 20.2333 30.55 21.3L36.6 19.2V19C36.6 17.4167 37.1542 16.0708 38.2625 14.9625C39.3708 13.8542 40.7167 13.3 42.3 13.3C43.8833 13.3 45.2292 13.8542 46.3375 14.9625C47.4458 16.0708 48 17.4167 48 19C48 20.5833 47.4458 21.9292 46.3375 23.0375C45.2292 24.1458 43.8833 24.7 42.3 24.7C41.2333 24.7 40.2833 24.4667 39.45 24C38.6167 23.5333 37.9667 22.8833 37.5 22.05L31.45 24.1C31.6167 25.1667 31.5417 26.1917 31.225 27.175C30.9083 28.1583 30.4167 29.0333 29.75 29.8L34 35.1C34.3667 34.9333 34.725 34.8083 35.075 34.725C35.425 34.6417 35.826 34.6 36.2781 34.6C37.8927 34.6 39.25 35.1542 40.35 36.2625C41.45 37.3708 42 38.7167 42 40.3C42 41.8833 41.4458 43.2292 40.3375 44.3375C39.2292 45.4458 37.8833 46 36.3 46C34.7167 46 33.3708 45.4458 32.2625 44.3375C31.1542 43.2292 30.6 41.8833 30.6 40.3C30.6 39.6333 30.6917 39.0333 30.875 38.5C31.0583 37.9667 31.3167 37.45 31.65 36.95L27.4 31.65C26.3291 32.2167 25.1864 32.5 23.9719 32.5C22.7573 32.5 21.6167 32.2167 20.55 31.65L16.35 37C16.6833 37.5 16.9417 38.0083 17.125 38.525C17.3083 39.0417 17.4 39.6333 17.4 40.3C17.4 41.8833 16.8458 43.2292 15.7375 44.3375C14.6292 45.4458 13.2833 46 11.7 46ZM5.70175 21.7C6.46725 21.7 7.10833 21.4411 7.625 20.9233C8.14167 20.4054 8.4 19.7638 8.4 18.9983C8.4 18.2328 8.14108 17.5917 7.62325 17.075C7.10542 16.5583 6.46375 16.3 5.69825 16.3C4.93275 16.3 4.29167 16.5589 3.775 17.0767C3.25833 17.5946 3 18.2362 3 19.0017C3 19.7672 3.25892 20.4083 3.77675 20.925C4.29458 21.4417 4.93625 21.7 5.70175 21.7ZM11.7018 43C12.4673 43 13.1083 42.7411 13.625 42.2232C14.1417 41.7054 14.4 41.0637 14.4 40.2982C14.4 39.5327 14.1411 38.8917 13.6233 38.375C13.1054 37.8583 12.4638 37.6 11.6982 37.6C10.9327 37.6 10.2917 37.8589 9.775 38.3768C9.25833 38.8946 9 39.5363 9 40.3018C9 41.0673 9.25892 41.7083 9.77675 42.225C10.2946 42.7417 10.9363 43 11.7018 43ZM24.0018 8.4C24.7673 8.4 25.4083 8.14108 25.925 7.62325C26.4417 7.10542 26.7 6.46375 26.7 5.69825C26.7 4.93275 26.4411 4.29167 25.9233 3.775C25.4054 3.25833 24.7638 3 23.9983 3C23.2328 3 22.5917 3.25892 22.075 3.77675C21.5583 4.29458 21.3 4.93625 21.3 5.70175C21.3 6.46725 21.5589 7.10833 22.0768 7.625C22.5946 8.14167 23.2363 8.4 24.0018 8.4ZM24.025 29.5C25.275 29.5 26.3333 29.0583 27.2 28.175C28.0667 27.2917 28.5 26.225 28.5 24.975C28.5 23.725 28.065 22.6667 27.195 21.8C26.325 20.9333 25.26 20.5 24 20.5C22.7667 20.5 21.7083 20.935 20.825 21.805C19.9417 22.675 19.5 23.74 19.5 25C19.5 26.2333 19.9417 27.2917 20.825 28.175C21.7083 29.0583 22.775 29.5 24.025 29.5ZM36.3017 43C37.0672 43 37.7083 42.7411 38.225 42.2232C38.7417 41.7054 39 41.0637 39 40.2982C39 39.5327 38.7411 38.8917 38.2233 38.375C37.7054 37.8583 37.0638 37.6 36.2983 37.6C35.5328 37.6 34.8917 37.8589 34.375 38.3768C33.8583 38.8946 33.6 39.5363 33.6 40.3018C33.6 41.0673 33.8589 41.7083 34.3767 42.225C34.8946 42.7417 35.5362 43 36.3017 43ZM42.3017 21.7C43.0672 21.7 43.7083 21.4411 44.225 20.9233C44.7417 20.4054 45 19.7638 45 18.9983C45 18.2328 44.7411 17.5917 44.2233 17.075C43.7054 16.5583 43.0638 16.3 42.2983 16.3C41.5328 16.3 40.8917 16.5589 40.375 17.0767C39.8583 17.5946 39.6 18.2362 39.6 19.0017C39.6 19.7672 39.8589 20.4083 40.3767 20.925C40.8946 21.4417 41.5362 21.7 42.3017 21.7Z" fill="#FDFEFF"/>
</svg>
